<svg xmlns="http://www.w3.org/2000/svg">
  <!-- icons -->
  <symbol id="location" viewBox="0 0 24 24" fill="none" stroke="#000000" stroke-width="1" stroke-linecap="round" stroke-linejoin="round">
    <path d="M9 11a3 3 0 1 0 6 0a3 3 0 0 0 -6 0" />
    <path d="M17.657 16.657l-4.243 4.243a2 2 0 0 1 -2.827 0l-4.244 -4.243a8 8 0 1 1 11.314 0z" />
  </symbol>
  <symbol
    id="external-link"
    viewBox="0 0 24 24"
    fill="none"
    stroke="#000000"
    stroke-width="1"
    stroke-linecap="round"
    stroke-linejoin="round"
  >
    <path d="M12 6h-6a2 2 0 0 0 -2 2v10a2 2 0 0 0 2 2h10a2 2 0 0 0 2 -2v-6" />
    <path d="M11 13l9 -9" />
    <path d="M15 4h5v5" />
  </symbol>
  <!-- socials -->
  <symbol id="gmail" viewBox="0 49.4 512 399.42">
    <g fill="none" fill-rule="evenodd">
      <g fill-rule="nonzero">
        <path fill="#767479" d="M34.91 448.818h81.454V251L0 163.727V413.91c0 19.287 15.622 34.91 34.91 34.91z" />
        <path fill="#767479" d="M395.636 448.818h81.455c19.287 0 34.909-15.622 34.909-34.909V163.727L395.636 251z" />
        <path fill="#767479" d="M395.636 99.727V251L512 163.727v-46.545c0-43.142-49.25-67.782-83.782-41.891z" />
      </g>
      <path fill="#767479" d="M116.364 251V99.727L256 204.455 395.636 99.727V251L256 355.727z" />
      <path fill="#767479" fill-rule="nonzero" d="M0 117.182v46.545L116.364 251V99.727L83.782 75.291C49.25 49.4 0 74.04 0 117.18z" />
    </g>
  </symbol>
  <symbol id="linkedin" viewBox="0 0 256 256">
    <path d="M218.123 218.127h-37.931v-59.403c0-14.165-.253-32.4-19.728-32.4-19.756 0-22.779 15.434-22.779 31.369v60.43h-37.93V95.967h36.413v16.694h.51a39.907 39.907 0 0 1 35.928-19.733c38.445 0 45.533 25.288 45.533 58.186l-.016 67.013ZM56.955 79.27c-12.157.002-22.014-9.852-22.016-22.009-.002-12.157 9.851-22.014 22.008-22.016 12.157-.003 22.014 9.851 22.016 22.008A22.013 22.013 0 0 1 56.955 79.27m18.966 138.858H37.95V95.967h37.97v122.16ZM237.033.018H18.89C8.58-.098.125 8.161-.001 18.471v219.053c.122 10.315 8.576 18.582 18.89 18.474h218.144c10.336.128 18.823-8.139 18.966-18.474V18.454c-.147-10.33-8.635-18.588-18.966-18.453" fill="#767479" />
  </symbol>
  <symbol id="github" viewBox="0 0 1024 1024">
    <path fill-rule="evenodd" clip-rule="evenodd" d="M8 0C3.58 0 0 3.58 0 8C0 11.54 2.29 14.53 5.47 15.59C5.87 15.66 6.02 15.42 6.02 15.21C6.02 15.02 6.01 14.39 6.01 13.72C4 14.09 3.48 13.23 3.32 12.78C3.23 12.55 2.84 11.84 2.5 11.65C2.22 11.5 1.82 11.13 2.49 11.12C3.12 11.11 3.57 11.7 3.72 11.94C4.44 13.15 5.59 12.81 6.05 12.6C6.12 12.08 6.33 11.73 6.56 11.53C4.78 11.33 2.92 10.64 2.92 7.58C2.92 6.71 3.23 5.99 3.74 5.43C3.66 5.23 3.38 4.41 3.82 3.31C3.82 3.31 4.49 3.1 6.02 4.13C6.66 3.95 7.34 3.86 8.02 3.86C8.7 3.86 9.38 3.95 10.02 4.13C11.55 3.09 12.22 3.31 12.22 3.31C12.66 4.41 12.38 5.23 12.3 5.43C12.81 5.99 13.12 6.7 13.12 7.58C13.12 10.65 11.25 11.33 9.47 11.53C9.76 11.78 10.01 12.26 10.01 13.01C10.01 14.08 10 14.94 10 15.21C10 15.42 10.15 15.67 10.55 15.59C13.71 14.53 16 11.53 16 8C16 3.58 12.42 0 8 0Z" transform="scale(64)" fill="#767479" />
  </symbol>
  <symbol id="x" viewBox="0 0 1200 1227">
    <path fill="#767479" d="M714.163 519.284 1160.89 0h-105.86L667.137 450.887 357.328 0H0l468.492 681.821L0 1226.37h105.866l409.625-476.152 327.181 476.152H1200L714.137 519.284h.026ZM569.165 687.828l-47.468-67.894-377.686-540.24h162.604l304.797 435.991 47.468 67.894 396.2 566.721H892.476L569.165 687.854v-.026Z" />
  </symbol>
  <!-- technologies -->
  <symbol id="nextjs" viewBox="0 0 256 256">
    <g id="SVGRepo_bgCarrier" stroke-width="0"></g>
    <g id="SVGRepo_tracerCarrier" stroke-linecap="round" stroke-linejoin="round"></g>
    <g id="SVGRepo_iconCarrier">
      <g>
        <path d="M119.616813,0.0688905149 C119.066276,0.118932037 117.314565,0.294077364 115.738025,0.419181169 C79.3775171,3.69690087 45.3192571,23.3131775 23.7481916,53.4631946 C11.7364614,70.2271045 4.05395894,89.2428829 1.15112414,109.384595 C0.12512219,116.415429 0,118.492153 0,128.025062 C0,137.557972 0.12512219,139.634696 1.15112414,146.665529 C8.10791789,194.730411 42.3163245,235.11392 88.7116325,250.076335 C97.0197458,252.753556 105.778299,254.580072 115.738025,255.680985 C119.616813,256.106338 136.383187,256.106338 140.261975,255.680985 C157.453763,253.779407 172.017986,249.525878 186.382014,242.194795 C188.584164,241.068861 189.00958,240.768612 188.709286,240.518404 C188.509091,240.36828 179.124927,227.782837 167.86393,212.570214 L147.393939,184.922273 L121.743891,146.965779 C107.630108,126.098464 96.0187683,109.034305 95.9186706,109.034305 C95.8185728,109.009284 95.7184751,125.873277 95.6684262,146.465363 C95.5933529,182.52028 95.5683284,183.971484 95.1178886,184.82219 C94.4672532,186.048207 93.9667644,186.548623 92.915738,187.099079 C92.114956,187.499411 91.4142717,187.574474 87.6355816,187.574474 L83.3063539,187.574474 L82.1552297,186.848872 C81.4044966,186.373477 80.8539589,185.747958 80.4785924,185.022356 L79.9530792,183.896422 L80.0031281,133.729796 L80.0782014,83.5381493 L80.8539589,82.5623397 C81.25435,82.0369037 82.1051808,81.3613431 82.7057674,81.0360732 C83.7317693,80.535658 84.1321603,80.4856165 88.4613881,80.4856165 C93.5663734,80.4856165 94.4172043,80.6857826 95.7434995,82.1369867 C96.1188661,82.5373189 110.007429,103.454675 126.623656,128.650581 C143.239883,153.846488 165.962072,188.250034 177.122972,205.139048 L197.392766,235.839522 L198.418768,235.163961 C207.502639,229.259062 217.112023,220.852086 224.719453,212.09482 C240.910264,193.504394 251.345455,170.835585 254.848876,146.665529 C255.874878,139.634696 256,137.557972 256,128.025062 C256,118.492153 255.874878,116.415429 254.848876,109.384595 C247.892082,61.3197135 213.683675,20.9362052 167.288368,5.97379012 C159.105376,3.32158945 150.396872,1.49507389 140.637341,0.394160408 C138.234995,0.143952798 121.693842,-0.131275573 119.616813,0.0688905149 L119.616813,0.0688905149 Z M172.017986,77.4831252 C173.219159,78.0836234 174.195112,79.2345784 174.545455,80.435575 C174.74565,81.0861148 174.795699,94.9976579 174.74565,126.348671 L174.670577,171.336 L166.73783,159.17591 L158.780059,147.01582 L158.780059,114.313685 C158.780059,93.1711423 158.880156,81.2862808 159.030303,80.7108033 C159.430694,79.3096407 160.306549,78.2087272 161.507722,77.5581875 C162.533724,77.0327515 162.909091,76.98271 166.837928,76.98271 C170.541544,76.98271 171.19218,77.0327515 172.017986,77.4831252 Z" fill="#000000"></path>
      </g>
    </g>
  </symbol>
  <symbol id="reactjs" viewBox="0 0 569 512">
    <g fill="none" fill-rule="evenodd">
      <g transform="translate(-227, -256)" fill="#58C4DC" fill-rule="nonzero">
        <g transform="translate(227, 256)">
          <path d="M285.5,201 C255.400481,201 231,225.400481 231,255.5 C231,285.599519 255.400481,310 285.5,310 C315.599519,310 340,285.599519 340,255.5 C340,225.400481 315.599519,201 285.5,201" id="react_dark__Path" />
          <path d="M568.959856,255.99437 C568.959856,213.207656 529.337802,175.68144 466.251623,150.985214 C467.094645,145.423543 467.85738,139.922107 468.399323,134.521063 C474.621631,73.0415145 459.808523,28.6686204 426.709856,9.5541429 C389.677085,-11.8291748 337.36955,3.69129898 284.479928,46.0162134 C231.590306,3.69129898 179.282771,-11.8291748 142.25,9.5541429 C109.151333,28.6686204 94.3382249,73.0415145 100.560533,134.521063 C101.102476,139.922107 101.845139,145.443621 102.708233,151.02537 C97.4493791,153.033193 92.2908847,155.161486 87.3331099,157.39017 C31.0111824,182.708821 0,217.765415 0,255.99437 C0,298.781084 39.6220545,336.307301 102.708233,361.003527 C101.845139,366.565197 101.102476,372.066633 100.560533,377.467678 C94.3382249,438.947226 109.151333,483.32012 142.25,502.434597 C153.629683,508.887578 166.52439,512.186771 179.603923,511.991836 C210.956328,511.991836 247.567589,495.487529 284.479928,465.972527 C321.372196,495.487529 358.003528,511.991836 389.396077,511.991836 C402.475265,512.183856 415.36922,508.884856 426.75,502.434597 C459.848667,483.32012 474.661775,438.947226 468.439467,377.467678 C467.897524,372.066633 467.134789,366.565197 466.291767,361.003527 C529.377946,336.347457 569,298.761006 569,255.99437 M389.155214,27.1025182 C397.565154,26.899606 405.877839,28.9368502 413.241569,33.0055186 C436.223966,46.2772304 446.540955,82.2775015 441.522965,131.770345 C441.181741,135.143488 440.780302,138.556788 440.298575,141.990165 C414.066922,134.08804 387.205771,128.452154 360.010724,125.144528 C343.525021,103.224055 325.192524,82.7564475 305.214266,63.9661533 C336.586743,39.7116483 366.032313,27.1025182 389.135142,27.1025182 M378.356498,310.205598 C368.204912,327.830733 357.150626,344.919965 345.237759,361.405091 C325.045049,363.479997 304.758818,364.51205 284.459856,364.497299 C264.167589,364.51136 243.888075,363.479308 223.702025,361.405091 C211.820914,344.919381 200.80007,327.83006 190.683646,310.205598 C180.532593,292.629285 171.306974,274.534187 163.044553,255.99437 C171.306974,237.454554 180.532593,219.359455 190.683646,201.783142 C200.784121,184.229367 211.770999,167.201087 223.601665,150.764353 C243.824636,148.63809 264.145559,147.579168 284.479928,147.591877 C304.772146,147.579725 325.051559,148.611772 345.237759,150.68404 C357.109048,167.14607 368.136094,184.201112 378.27621,201.783142 C388.419418,219.363718 397.644825,237.458403 405.915303,255.99437 C397.644825,274.530337 388.419418,292.625022 378.27621,310.205598 M419.724813,290.127366 C426.09516,307.503536 431.324985,325.277083 435.380944,343.334682 C417.779633,348.823635 399.836793,353.149774 381.668372,356.285142 C388.573127,345.871232 395.263781,335.035679 401.740334,323.778483 C408.143291,312.655143 414.144807,301.431411 419.805101,290.207679 M246.363271,390.377981 C258.848032,391.140954 271.593728,391.582675 284.5,391.582675 C297.406272,391.582675 310.232256,391.140954 322.737089,390.377981 C310.880643,404.583418 298.10766,417.997563 284.5,430.534446 C270.921643,417.999548 258.18192,404.585125 246.363271,390.377981 Z M187.311556,356.244986 C169.137286,353.123646 151.187726,348.810918 133.578912,343.334682 C137.618549,325.305649 142.828222,307.559058 149.174827,290.207679 C154.754833,301.431411 160.736278,312.655143 167.239594,323.778483 C173.74291,334.901824 180.467017,345.864539 187.311556,356.285142 M149.174827,221.760984 C142.850954,204.473938 137.654787,186.794745 133.619056,168.834762 C151.18418,163.352378 169.085653,159.013101 187.211197,155.844146 C180.346585,166.224592 173.622478,176.986525 167.139234,188.210257 C160.65599,199.433989 154.734761,210.517173 149.074467,221.760984 M322.616657,121.590681 C310.131896,120.827708 297.3862,120.385987 284.379568,120.385987 C271.479987,120.385987 258.767744,120.787552 246.242839,121.590681 C258.061488,107.383537 270.801211,93.9691137 284.379568,81.4342157 C297.99241,93.9658277 310.765727,107.380324 322.616657,121.590681 Z M401.70019,188.210257 C395.196875,176.939676 388.472767,166.09743 381.527868,155.68352 C399.744224,158.819049 417.734224,163.151949 435.380944,168.654058 C431.331963,186.680673 426.122466,204.426664 419.785029,221.781062 C414.205023,210.55733 408.203506,199.333598 401.720262,188.230335 M127.517179,131.790423 C122.438973,82.3176579 132.816178,46.2973086 155.778503,33.0255968 C163.144699,28.9632474 171.455651,26.9264282 179.864858,27.1225964 C202.967687,27.1225964 232.413257,39.7317265 263.785734,63.9862316 C243.794133,82.7898734 225.448298,103.270812 208.949132,125.204763 C181.761691,128.528025 154.90355,134.14313 128.661281,141.990165 C128.199626,138.556788 127.778115,135.163566 127.456963,131.790423 M98.4529773,182.106474 C101.54406,180.767925 104.695358,179.429376 107.906872,178.090828 C114.220532,204.735668 122.781793,230.7969 133.498624,255.99437 C122.761529,281.241316 114.193296,307.357063 107.8868,334.058539 C56.7434387,313.076786 27.0971497,284.003505 27.0971497,255.99437 C27.0971497,229.450947 53.1907013,202.526037 98.4529773,182.106474 Z M155.778503,478.963143 C132.816178,465.691432 122.438973,429.671082 127.517179,380.198317 C127.838331,376.825174 128.259842,373.431953 128.721497,369.978497 C154.953686,377.878517 181.814655,383.514365 209.009348,386.824134 C225.500295,408.752719 243.832321,429.233234 263.805806,448.042665 C220.069,481.834331 180.105722,492.97775 155.838719,478.963143 M441.502893,380.198317 C446.520883,429.691161 436.203894,465.691432 413.221497,478.963143 C388.974566,493.017906 348.991216,481.834331 305.274481,448.042665 C325.241364,429.232737 343.566681,408.752215 360.050868,386.824134 C387.245915,383.516508 414.107066,377.880622 440.338719,369.978497 C440.820446,373.431953 441.221885,376.825174 441.563109,380.198317 M461.193488,334.018382 C454.869166,307.332523 446.294494,281.231049 435.561592,255.99437 C446.289797,230.744081 454.857778,204.629101 461.173416,177.930202 C512.216417,198.911955 541.942994,227.985236 541.942994,255.99437 C541.942994,284.003505 512.296705,313.076786 461.153344,334.058539" id="react_dark__Shape" />
        </g>
      </g>
    </g>
  </symbol>
  <symbol id="nodejs" viewBox="-13 0 282 282">
    <g id="SVGRepo_bgCarrier" stroke-width="0"></g>
    <g id="SVGRepo_tracerCarrier" stroke-linecap="round" stroke-linejoin="round"></g>
    <g id="SVGRepo_iconCarrier">
      <g fill="#8CC84B">
        <path d="M116.504 3.58c6.962-3.985 16.03-4.003 22.986 0 34.995 19.774 70.001 39.517 104.99 59.303 6.581 3.707 10.983 11.031 10.916 18.614v118.968c.049 7.897-4.788 15.396-11.731 19.019-34.88 19.665-69.742 39.354-104.616 59.019-7.106 4.063-16.356 3.75-23.24-.646-10.457-6.062-20.932-12.094-31.39-18.15-2.137-1.274-4.546-2.288-6.055-4.36 1.334-1.798 3.719-2.022 5.657-2.807 4.365-1.388 8.374-3.616 12.384-5.778 1.014-.694 2.252-.428 3.224.193 8.942 5.127 17.805 10.403 26.777 15.481 1.914 1.105 3.852-.362 5.488-1.274 34.228-19.345 68.498-38.617 102.72-57.968 1.268-.61 1.969-1.956 1.866-3.345.024-39.245.006-78.497.012-117.742.145-1.576-.767-3.025-2.192-3.67-34.759-19.575-69.5-39.18-104.253-58.76a3.621 3.621 0 0 0-4.094-.006C91.2 39.257 56.465 58.88 21.712 78.454c-1.42.646-2.373 2.071-2.204 3.653.006 39.245 0 78.497 0 117.748a3.329 3.329 0 0 0 1.89 3.303c9.274 5.259 18.56 10.481 27.84 15.722 5.228 2.814 11.647 4.486 17.407 2.33 5.083-1.823 8.646-7.01 8.549-12.407.048-39.016-.024-78.038.036-117.048-.127-1.732 1.516-3.163 3.2-3 4.456-.03 8.918-.06 13.374.012 1.86-.042 3.14 1.823 2.91 3.568-.018 39.263.048 78.527-.03 117.79.012 10.464-4.287 21.85-13.966 26.97-11.924 6.177-26.662 4.867-38.442-1.056-10.198-5.09-19.93-11.097-29.947-16.55C5.368 215.886.555 208.357.604 200.466V81.497c-.073-7.74 4.504-15.197 11.29-18.85C46.768 42.966 81.636 23.27 116.504 3.58z"></path>
        <path d="M146.928 85.99c15.21-.979 31.493-.58 45.18 6.913 10.597 5.742 16.472 17.793 16.659 29.566-.296 1.588-1.956 2.464-3.472 2.355-4.413-.006-8.827.06-13.24-.03-1.872.072-2.96-1.654-3.195-3.309-1.268-5.633-4.34-11.212-9.642-13.929-8.139-4.075-17.576-3.87-26.451-3.785-6.479.344-13.446.905-18.935 4.715-4.214 2.886-5.494 8.712-3.99 13.404 1.418 3.369 5.307 4.456 8.489 5.458 18.33 4.794 37.754 4.317 55.734 10.626 7.444 2.572 14.726 7.572 17.274 15.366 3.333 10.446 1.872 22.932-5.56 31.318-6.027 6.901-14.805 10.657-23.56 12.697-11.647 2.597-23.734 2.663-35.562 1.51-11.122-1.268-22.696-4.19-31.282-11.768-7.342-6.375-10.928-16.308-10.572-25.895.085-1.619 1.697-2.748 3.248-2.615 4.444-.036 8.888-.048 13.332.006 1.775-.127 3.091 1.407 3.182 3.08.82 5.367 2.837 11 7.517 14.182 9.032 5.827 20.365 5.428 30.707 5.591 8.568-.38 18.186-.495 25.178-6.158 3.689-3.23 4.782-8.634 3.785-13.283-1.08-3.925-5.186-5.754-8.712-6.95-18.095-5.724-37.736-3.647-55.656-10.12-7.275-2.571-14.31-7.432-17.105-14.906-3.9-10.578-2.113-23.662 6.098-31.765 8.006-8.06 19.563-11.164 30.551-12.275z"></path>
      </g>
    </g>
  </symbol>
  <symbol id="postgre" viewBox="0 0 432.071 445.383">
    <g style="
                    fill-rule: nonzero;
                    clip-rule: nonzero;
                    fill: none;
                    stroke: #fff;
                    stroke-width: 12.4651;
                    stroke-linecap: round;
                    stroke-linejoin: round;
                    stroke-miterlimit: 4;
                  ">
      <path d="M323.205 324.227c2.833-23.601 1.984-27.062 19.563-23.239l4.463.392c13.517.615 31.199-2.174 41.587-7 22.362-10.376 35.622-27.7 13.572-23.148-50.297 10.376-53.755-6.655-53.755-6.655 53.111-78.803 75.313-178.836 56.149-203.322-52.27-66.789-142.748-35.206-144.262-34.386l-.482.089c-9.938-2.062-21.06-3.294-33.554-3.496-22.761-.374-40.032 5.967-53.133 15.904 0 0-161.408-66.498-153.899 83.628 1.597 31.936 45.777 241.655 98.47 178.31 19.259-23.163 37.871-42.748 37.871-42.748 9.242 6.14 20.307 9.272 31.912 8.147l.897-.765c-.281 2.876-.157 5.689.359 9.019-13.572 15.167-9.584 17.83-36.723 23.416-27.457 5.659-11.326 15.734-.797 18.367 12.768 3.193 42.305 7.716 62.268-20.224l-.795 3.188c5.325 4.26 4.965 30.619 5.72 49.452.756 18.834 2.017 36.409 5.856 46.771 3.839 10.36 8.369 37.05 44.036 29.406 29.809-6.388 52.6-15.582 54.677-101.107" style="
                      fill: #000;
                      stroke: #000;
                      stroke-width: 37.3953;
                      stroke-linecap: butt;
                      stroke-linejoin: miter;
                    " />
      <path stroke="none" d="M402.395 271.23c-50.302 10.376-53.76-6.655-53.76-6.655 53.111-78.808 75.313-178.843 56.153-203.326-52.27-66.785-142.752-35.2-144.262-34.38l-.486.087c-9.938-2.063-21.06-3.292-33.56-3.496-22.761-.373-40.026 5.967-53.127 15.902 0 0-161.411-66.495-153.904 83.63 1.597 31.938 45.776 241.657 98.471 178.312 19.26-23.163 37.869-42.748 37.869-42.748 9.243 6.14 20.308 9.272 31.908 8.147l.901-.765c-.28 2.876-.152 5.689.361 9.019-13.575 15.167-9.586 17.83-36.723 23.416-27.459 5.659-11.328 15.734-.796 18.367 12.768 3.193 42.307 7.716 62.266-20.224l-.796 3.188c5.319 4.26 9.054 27.711 8.428 48.969-.626 21.259-1.044 35.854 3.147 47.254 4.191 11.4 8.368 37.05 44.042 29.406 29.809-6.388 45.256-22.942 47.405-50.555 1.525-19.631 4.976-16.729 5.194-34.28l2.768-8.309c3.192-26.611.507-35.196 18.872-31.203l4.463.392c13.517.615 31.208-2.174 41.591-7 22.358-10.376 35.618-27.7 13.573-23.148z" style="fill: #336791; stroke: none" />
      <path d="M215.866 286.484c-1.385 49.516.348 99.377 5.193 111.495 4.848 12.118 15.223 35.688 50.9 28.045 29.806-6.39 40.651-18.756 45.357-46.051 3.466-20.082 10.148-75.854 11.005-87.281M173.104 38.256S11.583-27.76 19.092 122.365c1.597 31.938 45.779 241.664 98.473 178.316 19.256-23.166 36.671-41.335 36.671-41.335M260.349 26.207c-5.591 1.753 89.848-34.889 144.087 34.417 19.159 24.484-3.043 124.519-56.153 203.329" />
      <path d="M348.282 263.953s3.461 17.036 53.764 6.653c22.04-4.552 8.776 12.774-13.577 23.155-18.345 8.514-59.474 10.696-60.146-1.069-1.729-30.355 21.647-21.133 19.96-28.739-1.525-6.85-11.979-13.573-18.894-30.338-6.037-14.633-82.796-126.849 21.287-110.183 3.813-.789-27.146-99.002-124.553-100.599-97.385-1.597-94.19 119.762-94.19 119.762" style="stroke-linejoin: bevel" />
      <path d="M188.604 274.334c-13.577 15.166-9.584 17.829-36.723 23.417-27.459 5.66-11.326 15.733-.797 18.365 12.768 3.195 42.307 7.718 62.266-20.229 6.078-8.509-.036-22.086-8.385-25.547-4.034-1.671-9.428-3.765-16.361 3.994z" />
      <path d="M187.715 274.069c-1.368-8.917 2.93-19.528 7.536-31.942 6.922-18.626 22.893-37.255 10.117-96.339-9.523-44.029-73.396-9.163-73.436-3.193-.039 5.968 2.889 30.26-1.067 58.548-5.162 36.913 23.488 68.132 56.479 64.938" />
      <path d="M172.517 141.7c-.288 2.039 3.733 7.48 8.976 8.207 5.234.73 9.714-3.522 9.998-5.559.284-2.039-3.732-4.285-8.977-5.015-5.237-.731-9.719.333-9.996 2.367z" style="
                      fill: #fff;
                      stroke-width: 4.155;
                      stroke-linecap: butt;
                      stroke-linejoin: miter;
                    " />
      <path d="M331.941 137.543c.284 2.039-3.732 7.48-8.976 8.207-5.238.73-9.718-3.522-10.005-5.559-.277-2.039 3.74-4.285 8.979-5.015 5.239-.73 9.718.333 10.002 2.368z" style="
                      fill: #fff;
                      stroke-width: 2.0775;
                      stroke-linecap: butt;
                      stroke-linejoin: miter;
                    " />
      <path d="M350.676 123.432c.863 15.994-3.445 26.888-3.988 43.914-.804 24.748 11.799 53.074-7.191 81.435" />
    </g>
  </symbol>
  <symbol id="graphql" viewBox="0 0 100 100" fill="#e10098">
    <path fill-rule="evenodd" clip-rule="evenodd" d="M50 6.90308L87.323 28.4515V71.5484L50 93.0968L12.677 71.5484V28.4515L50 6.90308ZM16.8647 30.8693V62.5251L44.2795 15.0414L16.8647 30.8693ZM50 13.5086L18.3975 68.2457H81.6025L50 13.5086ZM77.4148 72.4334H22.5852L50 88.2613L77.4148 72.4334ZM83.1353 62.5251L55.7205 15.0414L83.1353 30.8693V62.5251Z" />
    <circle cx="50" cy="9.3209" r="8.82" />
    <circle cx="85.2292" cy="29.6605" r="8.82" />
    <circle cx="85.2292" cy="70.3396" r="8.82" />
    <circle cx="50" cy="90.6791" r="8.82" />
    <circle cx="14.7659" cy="70.3396" r="8.82" />
    <circle cx="14.7659" cy="29.6605" r="8.82" />
  </symbol>
  <symbol id="docker" viewBox="0 0 24 24" fill="#008fe2">
    <path d="M13.98 11.08h2.12a.19.19 0 0 0 .19-.19V9.01a.19.19 0 0 0-.19-.19h-2.12a.18.18 0 0 0-.18.18v1.9c0 .1.08.18.18.18m-2.95-5.43h2.12a.19.19 0 0 0 .18-.19V3.57a.19.19 0 0 0-.18-.18h-2.12a.18.18 0 0 0-.19.18v1.9c0 .1.09.18.19.18m0 2.71h2.12a.19.19 0 0 0 .18-.18V6.29a.19.19 0 0 0-.18-.18h-2.12a.18.18 0 0 0-.19.18v1.89c0 .1.09.18.19.18m-2.93 0h2.12a.19.19 0 0 0 .18-.18V6.29a.18.18 0 0 0-.18-.18H8.1a.18.18 0 0 0-.18.18v1.89c0 .1.08.18.18.18m-2.96 0h2.11a.19.19 0 0 0 .19-.18V6.29a.18.18 0 0 0-.19-.18H5.14a.19.19 0 0 0-.19.18v1.89c0 .1.08.18.19.18m5.89 2.72h2.12a.19.19 0 0 0 .18-.19V9.01a.19.19 0 0 0-.18-.19h-2.12a.18.18 0 0 0-.19.18v1.9c0 .1.09.18.19.18m-2.93 0h2.12a.18.18 0 0 0 .18-.19V9.01a.18.18 0 0 0-.18-.19H8.1a.18.18 0 0 0-.18.18v1.9c0 .1.08.18.18.18m-2.96 0h2.11a.18.18 0 0 0 .19-.19V9.01a.18.18 0 0 0-.18-.19H5.14a.19.19 0 0 0-.19.19v1.88c0 .1.08.19.19.19m-2.92 0h2.12a.18.18 0 0 0 .18-.19V9.01a.18.18 0 0 0-.18-.19H2.22a.18.18 0 0 0-.19.18v1.9c0 .1.08.18.19.18m21.54-1.19c-.06-.05-.67-.51-1.95-.51-.34 0-.68.03-1.01.09a3.77 3.77 0 0 0-1.72-2.57l-.34-.2-.23.33a4.6 4.6 0 0 0-.6 1.43c-.24.97-.1 1.88.4 2.66a4.7 4.7 0 0 1-1.75.42H.76a.75.75 0 0 0-.76.75 11.38 11.38 0 0 0 .7 4.06 6.03 6.03 0 0 0 2.4 3.12c1.18.73 3.1 1.14 5.28 1.14.98 0 1.96-.08 2.93-.26a12.25 12.25 0 0 0 3.82-1.4 10.5 10.5 0 0 0 2.61-2.13c1.25-1.42 2-3 2.55-4.4h.23c1.37 0 2.21-.55 2.68-1 .3-.3.55-.66.7-1.06l.1-.28Z" />
  </symbol>
  <symbol id="github" viewBox="0 0 1024 1024" fill="none">
    <path fill-rule="evenodd" clip-rule="evenodd" d="M8 0C3.58 0 0 3.58 0 8C0 11.54 2.29 14.53 5.47 15.59C5.87 15.66 6.02 15.42 6.02 15.21C6.02 15.02 6.01 14.39 6.01 13.72C4 14.09 3.48 13.23 3.32 12.78C3.23 12.55 2.84 11.84 2.5 11.65C2.22 11.5 1.82 11.13 2.49 11.12C3.12 11.11 3.57 11.7 3.72 11.94C4.44 13.15 5.59 12.81 6.05 12.6C6.12 12.08 6.33 11.73 6.56 11.53C4.78 11.33 2.92 10.64 2.92 7.58C2.92 6.71 3.23 5.99 3.74 5.43C3.66 5.23 3.38 4.41 3.82 3.31C3.82 3.31 4.49 3.1 6.02 4.13C6.66 3.95 7.34 3.86 8.02 3.86C8.7 3.86 9.38 3.95 10.02 4.13C11.55 3.09 12.22 3.31 12.22 3.31C12.66 4.41 12.38 5.23 12.3 5.43C12.81 5.99 13.12 6.7 13.12 7.58C13.12 10.65 11.25 11.33 9.47 11.53C9.76 11.78 10.01 12.26 10.01 13.01C10.01 14.08 10 14.94 10 15.21C10 15.42 10.15 15.67 10.55 15.59C13.71 14.53 16 11.53 16 8C16 3.58 12.42 0 8 0Z" transform="scale(64)" fill="#000"/>
  </symbol>
  <svg id="git" preserveAspectRatio="xMidYMid" viewBox="0 0 256 256">
    <path d="M251.17 116.6 139.4 4.82a16.49 16.49 0 0 0-23.31 0l-23.21 23.2 29.44 29.45a19.57 19.57 0 0 1 24.8 24.96l28.37 28.38a19.61 19.61 0 1 1-11.75 11.06L137.28 95.4v69.64a19.62 19.62 0 1 1-16.13-.57V94.2a19.61 19.61 0 0 1-10.65-25.73L81.46 39.44 4.83 116.08a16.49 16.49 0 0 0 0 23.32L116.6 251.17a16.49 16.49 0 0 0 23.32 0l111.25-111.25a16.5 16.5 0 0 0 0-23.33" fill="#DE4C36"/>
  </svg>
  <!-- languages -->
  <symbol id="c" viewBox="0 0 306 345" fill="none">
    <g clip-path="url(#c__a)">
      <path fill="#00599C" d="M302.107 258.262c2.401-4.159 3.893-8.845 3.893-13.053V99.139c0-4.207-1.49-8.892-3.892-13.051L153 172.175l149.107 86.087Z" />
      <path fill="#004482" d="m166.25 341.193 126.5-73.034c3.644-2.104 6.956-5.737 9.357-9.897L153 172.175 3.893 258.263c2.4 4.159 5.714 7.793 9.357 9.896l126.5 73.034c7.287 4.208 19.213 4.208 26.5 0Z" />
      <path fill="#659AD2" d="M302.108 86.087c-2.402-4.16-5.715-7.793-9.358-9.897L166.25 3.156c-7.287-4.208-19.213-4.208-26.5 0L13.25 76.19C5.962 80.397 0 90.725 0 99.14v146.069c0 4.208 1.491 8.894 3.893 13.053L153 172.175l149.108-86.088Z" />
      <path fill="#fff" d="M153 274.175c-56.243 0-102-45.757-102-102s45.757-102 102-102c36.292 0 70.139 19.53 88.331 50.968l-44.143 25.544c-9.105-15.736-26.038-25.512-44.188-25.512-28.122 0-51 22.878-51 51 0 28.121 22.878 51 51 51 18.152 0 35.085-9.776 44.191-25.515l44.143 25.543c-18.192 31.441-52.04 50.972-88.334 50.972Z" />
    </g>
    <defs>
      <clipPath id="c__a">
        <path fill="#fff" d="M0 0h306v344.35H0z" />
      </clipPath>
    </defs>
  </symbol>
  <symbol id="js" viewBox="0 0 1052 1052">
    <path fill="#f0db4f" d="M0 0h1052v1052H0z" />
    <path d="M965.9 801.1c-7.7-48-39-88.3-131.7-125.9-32.2-14.8-68.1-25.399-78.8-49.8-3.8-14.2-4.3-22.2-1.9-30.8 6.9-27.9 40.2-36.6 66.6-28.6 17 5.7 33.1 18.801 42.8 39.7 45.4-29.399 45.3-29.2 77-49.399-11.6-18-17.8-26.301-25.4-34-27.3-30.5-64.5-46.2-124-45-10.3 1.3-20.699 2.699-31 4-29.699 7.5-58 23.1-74.6 44-49.8 56.5-35.6 155.399 25 196.1 59.7 44.8 147.4 55 158.6 96.9 10.9 51.3-37.699 67.899-86 62-35.6-7.4-55.399-25.5-76.8-58.4-39.399 22.8-39.399 22.8-79.899 46.1 9.6 21 19.699 30.5 35.8 48.7 76.2 77.3 266.899 73.5 301.1-43.5 1.399-4.001 10.6-30.801 3.199-72.101zm-394-317.6h-98.4c0 85-.399 169.4-.399 254.4 0 54.1 2.8 103.7-6 118.9-14.4 29.899-51.7 26.2-68.7 20.399-17.3-8.5-26.1-20.6-36.3-37.699-2.8-4.9-4.9-8.7-5.601-9-26.699 16.3-53.3 32.699-80 49 13.301 27.3 32.9 51 58 66.399 37.5 22.5 87.9 29.4 140.601 17.3 34.3-10 63.899-30.699 79.399-62.199 22.4-41.3 17.6-91.3 17.4-146.6.5-90.2 0-180.4 0-270.9z" fill="#323330" />
  </symbol>
</svg>